<svg width="38" height="37" viewBox="0 0 38 37" fill="none" xmlns="http://www.w3.org/2000/svg">
<g id="mdi:cellphone-message">
<path id="Vector" d="M17.4167 26.2083V10.7917H6.33332V26.2083H17.4167ZM17.4167 4.625C18.2565 4.625 19.062 4.94985 19.6558 5.52809C20.2497 6.10632 20.5833 6.89058 20.5833 7.70833V29.2917C20.5833 30.1094 20.2497 30.8937 19.6558 31.4719C19.062 32.0501 18.2565 32.375 17.4167 32.375H6.33332C5.49347 32.375 4.68802 32.0501 4.09415 31.4719C3.50029 30.8937 3.16666 30.1094 3.16666 29.2917V7.70833C3.16666 6.89058 3.50029 6.10632 4.09415 5.52809C4.68802 4.94985 5.49347 4.625 6.33332 4.625H17.4167ZM26.125 4.625H34.0417C34.6715 4.625 35.2756 4.86864 35.721 5.30232C36.1664 5.73599 36.4167 6.32419 36.4167 6.9375V11.5625C36.4167 12.1758 36.1664 12.764 35.721 13.1977C35.2756 13.6314 34.6715 13.875 34.0417 13.875H28.5L23.75 18.5V6.9375C23.75 6.32419 24.0002 5.73599 24.4456 5.30232C24.891 4.86864 25.4951 4.625 26.125 4.625Z" fill="#1F1B18"/>
</g>
</svg>
