<svg width="38" height="37" viewBox="0 0 38 37" fill="none" xmlns="http://www.w3.org/2000/svg">
<g id="mdi:account">
<path id="Vector" d="M19 6.16663C20.6797 6.16663 22.2906 6.81633 23.4784 7.9728C24.6661 9.12928 25.3333 10.6978 25.3333 12.3333C25.3333 13.9688 24.6661 15.5373 23.4784 16.6938C22.2906 17.8503 20.6797 18.5 19 18.5C17.3203 18.5 15.7094 17.8503 14.5217 16.6938C13.3339 15.5373 12.6667 13.9688 12.6667 12.3333C12.6667 10.6978 13.3339 9.12928 14.5217 7.9728C15.7094 6.81633 17.3203 6.16663 19 6.16663ZM19 21.5833C25.9983 21.5833 31.6667 24.3429 31.6667 27.75V30.8333H6.33334V27.75C6.33334 24.3429 12.0017 21.5833 19 21.5833Z" fill="#FFFAFF"/>
</g>
</svg>
